<mxfile host="Electron" agent="Mozilla/5.0 (Windows NT 10.0; Win64; x64) AppleWebKit/537.36 (KHTML, like Gecko) draw.io/28.1.2 Chrome/138.0.7204.243 Electron/37.4.0 Safari/537.36" version="28.1.2" pages="2">
  <diagram name="PÃ¡gina-1" id="ztUnENNevrX9pSrohpT3">
    <mxGraphModel dx="2798" dy="2635" grid="1" gridSize="10" guides="1" tooltips="1" connect="1" arrows="1" fold="1" page="1" pageScale="1" pageWidth="827" pageHeight="1169" math="0" shadow="0" adaptiveColors="auto">
      <root>
        <mxCell id="0" />
        <mxCell id="1" parent="0" />
        <mxCell id="NeJj3FIsD3pPFGkIkVii-1" value="Usuario" style="swimlane;fontStyle=1;align=center;verticalAlign=top;childLayout=stackLayout;horizontal=1;startSize=26;horizontalStack=0;resizeParent=1;resizeParentMax=0;resizeLast=0;collapsible=1;marginBottom=0;whiteSpace=wrap;html=1;" parent="1" vertex="1">
          <mxGeometry x="160" y="80" width="200" height="260" as="geometry" />
        </mxCell>
        <mxCell id="NeJj3FIsD3pPFGkIkVii-2" value="# idUsuario: int&lt;div&gt;- tipoUsuario: byte&lt;/div&gt;&lt;div&gt;- nomeCompleto: strg&lt;div&gt;- email: strg&lt;/div&gt;&lt;div&gt;- senhaHash: strg&lt;/div&gt;&lt;div&gt;- pontuacao: double&lt;/div&gt;&lt;div&gt;-endereco: strg&lt;br&gt;&lt;div&gt;&lt;br&gt;&lt;/div&gt;&lt;/div&gt;&lt;/div&gt;" style="text;strokeColor=none;fillColor=none;align=left;verticalAlign=top;spacingLeft=4;spacingRight=4;overflow=hidden;rotatable=0;points=[[0,0.5],[1,0.5]];portConstraint=eastwest;whiteSpace=wrap;html=1;" parent="NeJj3FIsD3pPFGkIkVii-1" vertex="1">
          <mxGeometry y="26" width="200" height="104" as="geometry" />
        </mxCell>
        <mxCell id="NeJj3FIsD3pPFGkIkVii-3" value="" style="line;strokeWidth=1;fillColor=none;align=left;verticalAlign=middle;spacingTop=-1;spacingLeft=3;spacingRight=3;rotatable=0;labelPosition=right;points=[];portConstraint=eastwest;strokeColor=inherit;" parent="NeJj3FIsD3pPFGkIkVii-1" vertex="1">
          <mxGeometry y="130" width="200" height="30" as="geometry" />
        </mxCell>
        <mxCell id="NeJj3FIsD3pPFGkIkVii-4" value="&lt;div&gt;+login();&lt;/div&gt;+cadastrarUsuario();&lt;div&gt;+atualizarPerfil();&lt;/div&gt;&lt;div&gt;+ganharPontos();&lt;/div&gt;&lt;div&gt;+historicoPlantio();&lt;/div&gt;&lt;div&gt;&lt;br&gt;&lt;/div&gt;" style="text;strokeColor=none;fillColor=none;align=left;verticalAlign=top;spacingLeft=4;spacingRight=4;overflow=hidden;rotatable=0;points=[[0,0.5],[1,0.5]];portConstraint=eastwest;whiteSpace=wrap;html=1;" parent="NeJj3FIsD3pPFGkIkVii-1" vertex="1">
          <mxGeometry y="160" width="200" height="100" as="geometry" />
        </mxCell>
        <mxCell id="NeJj3FIsD3pPFGkIkVii-5" value="PessoaFisica" style="swimlane;fontStyle=1;align=center;verticalAlign=top;childLayout=stackLayout;horizontal=1;startSize=26;horizontalStack=0;resizeParent=1;resizeParentMax=0;resizeLast=0;collapsible=1;marginBottom=0;whiteSpace=wrap;html=1;" parent="1" vertex="1">
          <mxGeometry x="650" y="-120" width="160" height="224" as="geometry" />
        </mxCell>
        <mxCell id="NeJj3FIsD3pPFGkIkVii-6" value="-dataNascimento: date&lt;div&gt;-cpf: strg&lt;/div&gt;&lt;div&gt;&lt;br&gt;&lt;/div&gt;" style="text;strokeColor=none;fillColor=none;align=left;verticalAlign=top;spacingLeft=4;spacingRight=4;overflow=hidden;rotatable=0;points=[[0,0.5],[1,0.5]];portConstraint=eastwest;whiteSpace=wrap;html=1;" parent="NeJj3FIsD3pPFGkIkVii-5" vertex="1">
          <mxGeometry y="26" width="160" height="44" as="geometry" />
        </mxCell>
        <mxCell id="2nkvY8LqYgQEzE0bkV1d-5" value="-dataNascimento: date&lt;div&gt;-cpf: strg&lt;/div&gt;&lt;div&gt;&lt;br&gt;&lt;/div&gt;" style="text;strokeColor=none;fillColor=none;align=left;verticalAlign=top;spacingLeft=4;spacingRight=4;overflow=hidden;rotatable=0;points=[[0,0.5],[1,0.5]];portConstraint=eastwest;whiteSpace=wrap;html=1;" vertex="1" parent="NeJj3FIsD3pPFGkIkVii-5">
          <mxGeometry y="70" width="160" height="44" as="geometry" />
        </mxCell>
        <mxCell id="NeJj3FIsD3pPFGkIkVii-7" value="" style="line;strokeWidth=1;fillColor=none;align=left;verticalAlign=middle;spacingTop=-1;spacingLeft=3;spacingRight=3;rotatable=0;labelPosition=right;points=[];portConstraint=eastwest;strokeColor=inherit;" parent="NeJj3FIsD3pPFGkIkVii-5" vertex="1">
          <mxGeometry y="114" width="160" height="10" as="geometry" />
        </mxCell>
        <mxCell id="NeJj3FIsD3pPFGkIkVii-87" value="&lt;div&gt;+retirarPlanta();&lt;/div&gt;" style="text;strokeColor=none;fillColor=none;align=left;verticalAlign=top;spacingLeft=4;spacingRight=4;overflow=hidden;rotatable=0;points=[[0,0.5],[1,0.5]];portConstraint=eastwest;whiteSpace=wrap;html=1;" parent="NeJj3FIsD3pPFGkIkVii-5" vertex="1">
          <mxGeometry y="124" width="160" height="100" as="geometry" />
        </mxCell>
        <mxCell id="NeJj3FIsD3pPFGkIkVii-9" value="PessoaJuridica" style="swimlane;fontStyle=1;align=center;verticalAlign=top;childLayout=stackLayout;horizontal=1;startSize=26;horizontalStack=0;resizeParent=1;resizeParentMax=0;resizeLast=0;collapsible=1;marginBottom=0;whiteSpace=wrap;html=1;" parent="1" vertex="1">
          <mxGeometry x="650" y="180" width="160" height="150" as="geometry" />
        </mxCell>
        <mxCell id="NeJj3FIsD3pPFGkIkVii-10" value="-dataCriacao: date&lt;div&gt;-cnpj: strg&lt;/div&gt;&lt;div&gt;&lt;br&gt;&lt;/div&gt;" style="text;strokeColor=none;fillColor=none;align=left;verticalAlign=top;spacingLeft=4;spacingRight=4;overflow=hidden;rotatable=0;points=[[0,0.5],[1,0.5]];portConstraint=eastwest;whiteSpace=wrap;html=1;" parent="NeJj3FIsD3pPFGkIkVii-9" vertex="1">
          <mxGeometry y="26" width="160" height="44" as="geometry" />
        </mxCell>
        <mxCell id="NeJj3FIsD3pPFGkIkVii-11" value="" style="line;strokeWidth=1;fillColor=none;align=left;verticalAlign=middle;spacingTop=-1;spacingLeft=3;spacingRight=3;rotatable=0;labelPosition=right;points=[];portConstraint=eastwest;strokeColor=inherit;" parent="NeJj3FIsD3pPFGkIkVii-9" vertex="1">
          <mxGeometry y="70" width="160" height="20" as="geometry" />
        </mxCell>
        <mxCell id="NeJj3FIsD3pPFGkIkVii-89" value="&lt;div&gt;+gestaoPontoRetirada(cmd: strg): void;&lt;/div&gt;&lt;div&gt;+publicarConteudo();&lt;/div&gt;&lt;div&gt;&lt;br&gt;&lt;/div&gt;" style="text;strokeColor=none;fillColor=none;align=left;verticalAlign=top;spacingLeft=4;spacingRight=4;overflow=hidden;rotatable=0;points=[[0,0.5],[1,0.5]];portConstraint=eastwest;whiteSpace=wrap;html=1;" parent="NeJj3FIsD3pPFGkIkVii-9" vertex="1">
          <mxGeometry y="90" width="160" height="60" as="geometry" />
        </mxCell>
        <mxCell id="NeJj3FIsD3pPFGkIkVii-13" value="Ong" style="swimlane;fontStyle=1;align=center;verticalAlign=top;childLayout=stackLayout;horizontal=1;startSize=26;horizontalStack=0;resizeParent=1;resizeParentMax=0;resizeLast=0;collapsible=1;marginBottom=0;whiteSpace=wrap;html=1;" parent="1" vertex="1">
          <mxGeometry x="650" y="472" width="160" height="130" as="geometry" />
        </mxCell>
        <mxCell id="NeJj3FIsD3pPFGkIkVii-14" value="-dataCriacao: date&lt;div&gt;-cnpj: strg&lt;/div&gt;&lt;div&gt;&lt;br&gt;&lt;/div&gt;" style="text;strokeColor=none;fillColor=none;align=left;verticalAlign=top;spacingLeft=4;spacingRight=4;overflow=hidden;rotatable=0;points=[[0,0.5],[1,0.5]];portConstraint=eastwest;whiteSpace=wrap;html=1;" parent="NeJj3FIsD3pPFGkIkVii-13" vertex="1">
          <mxGeometry y="26" width="160" height="44" as="geometry" />
        </mxCell>
        <mxCell id="NeJj3FIsD3pPFGkIkVii-15" value="" style="line;strokeWidth=1;fillColor=none;align=left;verticalAlign=middle;spacingTop=-1;spacingLeft=3;spacingRight=3;rotatable=0;labelPosition=right;points=[];portConstraint=eastwest;strokeColor=inherit;" parent="NeJj3FIsD3pPFGkIkVii-13" vertex="1">
          <mxGeometry y="70" width="160" height="8" as="geometry" />
        </mxCell>
        <mxCell id="Zc8QyrdB5PibOtYCHmZc-5" value="+gestaoPontoRetirada(cmd: strg): void;&lt;div&gt;+publicarConteudo();&lt;/div&gt;" style="text;strokeColor=none;fillColor=none;align=left;verticalAlign=top;spacingLeft=4;spacingRight=4;overflow=hidden;rotatable=0;points=[[0,0.5],[1,0.5]];portConstraint=eastwest;whiteSpace=wrap;html=1;" parent="NeJj3FIsD3pPFGkIkVii-13" vertex="1">
          <mxGeometry y="78" width="160" height="52" as="geometry" />
        </mxCell>
        <mxCell id="NeJj3FIsD3pPFGkIkVii-31" value="SUPER CLASSE" style="edgeLabel;resizable=0;html=1;align=left;verticalAlign=bottom;rotation=0;" parent="1" connectable="0" vertex="1">
          <mxGeometry x="370" y="100" as="geometry" />
        </mxCell>
        <mxCell id="NeJj3FIsD3pPFGkIkVii-36" value="Especie" style="swimlane;fontStyle=1;align=center;verticalAlign=top;childLayout=stackLayout;horizontal=1;startSize=26;horizontalStack=0;resizeParent=1;resizeParentMax=0;resizeLast=0;collapsible=1;marginBottom=0;whiteSpace=wrap;html=1;" parent="1" vertex="1">
          <mxGeometry x="-190" y="823" width="200" height="210" as="geometry" />
        </mxCell>
        <mxCell id="NeJj3FIsD3pPFGkIkVii-37" value="&lt;div&gt;&lt;div&gt;&lt;div&gt;# idEspecie: int&lt;/div&gt;&lt;/div&gt;&lt;/div&gt;&lt;div&gt;- tipoPlanta: strg&lt;/div&gt;&lt;div&gt;- nomeCientifico: strg&lt;/div&gt;&lt;div&gt;- nomePopular: strg&lt;/div&gt;&lt;div&gt;- biomaOrigem:strg&lt;/div&gt;&lt;div&gt;- especieFrutifera: boolean&lt;/div&gt;&lt;div&gt;- fasesCrescimento: strg&lt;/div&gt;&lt;div&gt;&lt;br&gt;&lt;/div&gt;&lt;div&gt;&lt;br&gt;&lt;/div&gt;" style="text;strokeColor=none;fillColor=none;align=left;verticalAlign=top;spacingLeft=4;spacingRight=4;overflow=hidden;rotatable=0;points=[[0,0.5],[1,0.5]];portConstraint=eastwest;whiteSpace=wrap;html=1;" parent="NeJj3FIsD3pPFGkIkVii-36" vertex="1">
          <mxGeometry y="26" width="200" height="114" as="geometry" />
        </mxCell>
        <mxCell id="NeJj3FIsD3pPFGkIkVii-38" value="" style="line;strokeWidth=1;fillColor=none;align=left;verticalAlign=middle;spacingTop=-1;spacingLeft=3;spacingRight=3;rotatable=0;labelPosition=right;points=[];portConstraint=eastwest;strokeColor=inherit;" parent="NeJj3FIsD3pPFGkIkVii-36" vertex="1">
          <mxGeometry y="140" width="200" height="30" as="geometry" />
        </mxCell>
        <mxCell id="NeJj3FIsD3pPFGkIkVii-39" value="+verificarCompatiblidade();&lt;div&gt;+informacaoBotanica();&lt;/div&gt;" style="text;strokeColor=none;fillColor=none;align=left;verticalAlign=top;spacingLeft=4;spacingRight=4;overflow=hidden;rotatable=0;points=[[0,0.5],[1,0.5]];portConstraint=eastwest;whiteSpace=wrap;html=1;" parent="NeJj3FIsD3pPFGkIkVii-36" vertex="1">
          <mxGeometry y="170" width="200" height="40" as="geometry" />
        </mxCell>
        <mxCell id="NeJj3FIsD3pPFGkIkVii-41" value="Plantio" style="swimlane;fontStyle=1;align=center;verticalAlign=top;childLayout=stackLayout;horizontal=1;startSize=26;horizontalStack=0;resizeParent=1;resizeParentMax=0;resizeLast=0;collapsible=1;marginBottom=0;whiteSpace=wrap;html=1;" parent="1" vertex="1">
          <mxGeometry x="160" y="520" width="200" height="250" as="geometry" />
        </mxCell>
        <mxCell id="NeJj3FIsD3pPFGkIkVii-42" value="&lt;div&gt;&lt;div&gt;# idPlantio: int&lt;/div&gt;&lt;div&gt;# idUsuario: int&lt;/div&gt;&lt;div&gt;- dataPlantio: date&lt;/div&gt;&lt;div&gt;- localizacao: geometry&lt;/div&gt;&lt;div&gt;- status; strg&lt;/div&gt;&lt;/div&gt;&lt;div&gt;&lt;br&gt;&lt;/div&gt;&lt;div&gt;&lt;br&gt;&lt;/div&gt;&lt;div&gt;&lt;br&gt;&lt;/div&gt;" style="text;strokeColor=none;fillColor=none;align=left;verticalAlign=top;spacingLeft=4;spacingRight=4;overflow=hidden;rotatable=0;points=[[0,0.5],[1,0.5]];portConstraint=eastwest;whiteSpace=wrap;html=1;" parent="NeJj3FIsD3pPFGkIkVii-41" vertex="1">
          <mxGeometry y="26" width="200" height="84" as="geometry" />
        </mxCell>
        <mxCell id="NeJj3FIsD3pPFGkIkVii-43" value="" style="line;strokeWidth=1;fillColor=none;align=left;verticalAlign=middle;spacingTop=-1;spacingLeft=3;spacingRight=3;rotatable=0;labelPosition=right;points=[];portConstraint=eastwest;strokeColor=inherit;" parent="NeJj3FIsD3pPFGkIkVii-41" vertex="1">
          <mxGeometry y="110" width="200" height="30" as="geometry" />
        </mxCell>
        <mxCell id="NeJj3FIsD3pPFGkIkVii-44" value="+verificarCompatiblidade();&lt;div&gt;+registrarPlantio();&lt;/div&gt;&lt;div&gt;+atualizarMonitoramento();&lt;/div&gt;&lt;div&gt;+visualizarPlantio();&lt;/div&gt;&lt;div&gt;+retirarPlanta();&lt;/div&gt;&lt;div&gt;&lt;br&gt;&lt;/div&gt;" style="text;strokeColor=none;fillColor=none;align=left;verticalAlign=top;spacingLeft=4;spacingRight=4;overflow=hidden;rotatable=0;points=[[0,0.5],[1,0.5]];portConstraint=eastwest;whiteSpace=wrap;html=1;" parent="NeJj3FIsD3pPFGkIkVii-41" vertex="1">
          <mxGeometry y="140" width="200" height="110" as="geometry" />
        </mxCell>
        <mxCell id="NeJj3FIsD3pPFGkIkVii-58" value="" style="endArrow=open;html=1;endSize=12;startArrow=diamondThin;startSize=14;startFill=1;edgeStyle=orthogonalEdgeStyle;align=left;verticalAlign=bottom;rounded=0;exitX=0.5;exitY=0;exitDx=0;exitDy=0;entryX=0.5;entryY=1;entryDx=0;entryDy=0;entryPerimeter=0;" parent="1" source="NeJj3FIsD3pPFGkIkVii-41" target="NeJj3FIsD3pPFGkIkVii-4" edge="1">
          <mxGeometry x="-1" y="3" relative="1" as="geometry">
            <mxPoint x="250" y="440" as="sourcePoint" />
            <mxPoint x="410" y="440" as="targetPoint" />
          </mxGeometry>
        </mxCell>
        <mxCell id="NeJj3FIsD3pPFGkIkVii-59" value="1" style="text;html=1;align=center;verticalAlign=middle;resizable=0;points=[];autosize=1;strokeColor=none;fillColor=none;" parent="1" vertex="1">
          <mxGeometry x="260" y="480" width="30" height="30" as="geometry" />
        </mxCell>
        <mxCell id="NeJj3FIsD3pPFGkIkVii-60" value="1:N" style="text;html=1;align=center;verticalAlign=middle;resizable=0;points=[];autosize=1;strokeColor=none;fillColor=none;" parent="1" vertex="1">
          <mxGeometry x="255" y="350" width="40" height="30" as="geometry" />
        </mxCell>
        <mxCell id="NeJj3FIsD3pPFGkIkVii-61" value="DetalhePlantio" style="swimlane;fontStyle=1;align=center;verticalAlign=top;childLayout=stackLayout;horizontal=1;startSize=26;horizontalStack=0;resizeParent=1;resizeParentMax=0;resizeLast=0;collapsible=1;marginBottom=0;whiteSpace=wrap;html=1;" parent="1" vertex="1">
          <mxGeometry x="-190" y="550" width="200" height="120" as="geometry" />
        </mxCell>
        <mxCell id="NeJj3FIsD3pPFGkIkVii-62" value="&lt;div&gt;&lt;span style=&quot;background-color: transparent; color: light-dark(rgb(0, 0, 0), rgb(255, 255, 255));&quot;&gt;# idPlantio: int&lt;/span&gt;&lt;/div&gt;&lt;div&gt;&lt;div&gt;# idEspecie: int&lt;/div&gt;&lt;/div&gt;&lt;div&gt;- quantidadeMudas: int&lt;/div&gt;" style="text;strokeColor=none;fillColor=none;align=left;verticalAlign=top;spacingLeft=4;spacingRight=4;overflow=hidden;rotatable=0;points=[[0,0.5],[1,0.5]];portConstraint=eastwest;whiteSpace=wrap;html=1;" parent="NeJj3FIsD3pPFGkIkVii-61" vertex="1">
          <mxGeometry y="26" width="200" height="54" as="geometry" />
        </mxCell>
        <mxCell id="NeJj3FIsD3pPFGkIkVii-63" value="" style="line;strokeWidth=1;fillColor=none;align=left;verticalAlign=middle;spacingTop=-1;spacingLeft=3;spacingRight=3;rotatable=0;labelPosition=right;points=[];portConstraint=eastwest;strokeColor=inherit;" parent="NeJj3FIsD3pPFGkIkVii-61" vertex="1">
          <mxGeometry y="80" width="200" height="10" as="geometry" />
        </mxCell>
        <mxCell id="NeJj3FIsD3pPFGkIkVii-64" value="&lt;div&gt;&lt;br&gt;&lt;/div&gt;&lt;div&gt;&lt;br&gt;&lt;/div&gt;" style="text;strokeColor=none;fillColor=none;align=left;verticalAlign=top;spacingLeft=4;spacingRight=4;overflow=hidden;rotatable=0;points=[[0,0.5],[1,0.5]];portConstraint=eastwest;whiteSpace=wrap;html=1;" parent="NeJj3FIsD3pPFGkIkVii-61" vertex="1">
          <mxGeometry y="90" width="200" height="30" as="geometry" />
        </mxCell>
        <mxCell id="NeJj3FIsD3pPFGkIkVii-65" value="" style="endArrow=block;startArrow=block;endFill=1;startFill=1;html=1;rounded=0;exitX=1;exitY=0.5;exitDx=0;exitDy=0;entryX=0;entryY=0.5;entryDx=0;entryDy=0;" parent="1" source="NeJj3FIsD3pPFGkIkVii-62" edge="1">
          <mxGeometry width="160" relative="1" as="geometry">
            <mxPoint x="-70" y="640" as="sourcePoint" />
            <mxPoint x="160" y="603" as="targetPoint" />
          </mxGeometry>
        </mxCell>
        <mxCell id="NeJj3FIsD3pPFGkIkVii-66" value="N:M" style="text;html=1;align=center;verticalAlign=middle;resizable=0;points=[];autosize=1;strokeColor=none;fillColor=none;" parent="1" vertex="1">
          <mxGeometry x="60" y="570" width="50" height="30" as="geometry" />
        </mxCell>
        <mxCell id="NeJj3FIsD3pPFGkIkVii-67" value="" style="endArrow=block;startArrow=block;endFill=1;startFill=1;html=1;rounded=0;exitX=0.5;exitY=0;exitDx=0;exitDy=0;" parent="1" source="NeJj3FIsD3pPFGkIkVii-36" edge="1">
          <mxGeometry width="160" relative="1" as="geometry">
            <mxPoint x="-90.3" y="790" as="sourcePoint" />
            <mxPoint x="-90.3" y="670" as="targetPoint" />
          </mxGeometry>
        </mxCell>
        <mxCell id="NeJj3FIsD3pPFGkIkVii-68" value="N:M" style="text;html=1;align=center;verticalAlign=middle;resizable=0;points=[];autosize=1;strokeColor=none;fillColor=none;" parent="1" vertex="1">
          <mxGeometry x="-90" y="740" width="50" height="30" as="geometry" />
        </mxCell>
        <mxCell id="NeJj3FIsD3pPFGkIkVii-69" value="Conteudo" style="swimlane;fontStyle=1;align=center;verticalAlign=top;childLayout=stackLayout;horizontal=1;startSize=26;horizontalStack=0;resizeParent=1;resizeParentMax=0;resizeLast=0;collapsible=1;marginBottom=0;whiteSpace=wrap;html=1;" parent="1" vertex="1">
          <mxGeometry x="160" y="-360" width="200" height="210" as="geometry" />
        </mxCell>
        <mxCell id="NeJj3FIsD3pPFGkIkVii-70" value="&lt;div&gt;- idConteudo&lt;/div&gt;# idUsuario: int&lt;div&gt;- tipoUsuario: byte&lt;/div&gt;&lt;div&gt;&lt;div&gt;&lt;div&gt;- titulo: string&lt;/div&gt;&lt;/div&gt;&lt;/div&gt;&lt;div&gt;- corpoTexto: string&lt;/div&gt;&lt;div&gt;- tipoConteudo: string&lt;/div&gt;&lt;div&gt;- datapublicacao: datetime&lt;/div&gt;" style="text;strokeColor=none;fillColor=none;align=left;verticalAlign=top;spacingLeft=4;spacingRight=4;overflow=hidden;rotatable=0;points=[[0,0.5],[1,0.5]];portConstraint=eastwest;whiteSpace=wrap;html=1;" parent="NeJj3FIsD3pPFGkIkVii-69" vertex="1">
          <mxGeometry y="26" width="200" height="104" as="geometry" />
        </mxCell>
        <mxCell id="NeJj3FIsD3pPFGkIkVii-71" value="" style="line;strokeWidth=1;fillColor=none;align=left;verticalAlign=middle;spacingTop=-1;spacingLeft=3;spacingRight=3;rotatable=0;labelPosition=right;points=[];portConstraint=eastwest;strokeColor=inherit;" parent="NeJj3FIsD3pPFGkIkVii-69" vertex="1">
          <mxGeometry y="130" width="200" height="30" as="geometry" />
        </mxCell>
        <mxCell id="NeJj3FIsD3pPFGkIkVii-72" value="+publicarConteudo();&lt;div&gt;+buscarTag();&lt;/div&gt;&lt;div&gt;&lt;br&gt;&lt;/div&gt;" style="text;strokeColor=none;fillColor=none;align=left;verticalAlign=top;spacingLeft=4;spacingRight=4;overflow=hidden;rotatable=0;points=[[0,0.5],[1,0.5]];portConstraint=eastwest;whiteSpace=wrap;html=1;" parent="NeJj3FIsD3pPFGkIkVii-69" vertex="1">
          <mxGeometry y="160" width="200" height="50" as="geometry" />
        </mxCell>
        <mxCell id="NeJj3FIsD3pPFGkIkVii-73" value="PontoRetiradaService" style="swimlane;fontStyle=1;align=center;verticalAlign=top;childLayout=stackLayout;horizontal=1;startSize=26;horizontalStack=0;resizeParent=1;resizeParentMax=0;resizeLast=0;collapsible=1;marginBottom=0;whiteSpace=wrap;html=1;" parent="1" vertex="1">
          <mxGeometry x="1041" y="330" width="200" height="140" as="geometry" />
        </mxCell>
        <mxCell id="NeJj3FIsD3pPFGkIkVii-75" value="" style="line;strokeWidth=1;fillColor=none;align=left;verticalAlign=middle;spacingTop=-1;spacingLeft=3;spacingRight=3;rotatable=0;labelPosition=right;points=[];portConstraint=eastwest;strokeColor=inherit;" parent="NeJj3FIsD3pPFGkIkVii-73" vertex="1">
          <mxGeometry y="26" width="200" height="10" as="geometry" />
        </mxCell>
        <mxCell id="NeJj3FIsD3pPFGkIkVii-76" value="&lt;div class=&quot;cm-line&quot;&gt;- pontos: List&amp;lt;PontoRetirada&amp;gt;&lt;/div&gt;&lt;div class=&quot;cm-line&quot;&gt;+ adicionar(p: PontoRetirada): void&lt;/div&gt;&lt;div class=&quot;cm-line&quot;&gt;+ remover(id: int): boolean&lt;/div&gt;&lt;div class=&quot;cm-line&quot;&gt;+ buscar(id: int): PontoRetirada&lt;/div&gt;&lt;div class=&quot;cm-line&quot;&gt;+ atualizar(p: PontoRetirada): void&lt;/div&gt;" style="text;strokeColor=none;fillColor=none;align=left;verticalAlign=top;spacingLeft=4;spacingRight=4;overflow=hidden;rotatable=0;points=[[0,0.5],[1,0.5]];portConstraint=eastwest;whiteSpace=wrap;html=1;" parent="NeJj3FIsD3pPFGkIkVii-73" vertex="1">
          <mxGeometry y="36" width="200" height="104" as="geometry" />
        </mxCell>
        <mxCell id="NeJj3FIsD3pPFGkIkVii-77" value="Catalogo" style="swimlane;fontStyle=1;align=center;verticalAlign=top;childLayout=stackLayout;horizontal=1;startSize=26;horizontalStack=0;resizeParent=1;resizeParentMax=0;resizeLast=0;collapsible=1;marginBottom=0;whiteSpace=wrap;html=1;" parent="1" vertex="1">
          <mxGeometry x="-400" y="1073" width="200" height="96" as="geometry" />
        </mxCell>
        <mxCell id="NeJj3FIsD3pPFGkIkVii-79" value="" style="line;strokeWidth=1;fillColor=none;align=left;verticalAlign=middle;spacingTop=-1;spacingLeft=3;spacingRight=3;rotatable=0;labelPosition=right;points=[];portConstraint=eastwest;strokeColor=inherit;" parent="NeJj3FIsD3pPFGkIkVii-77" vertex="1">
          <mxGeometry y="26" width="200" height="30" as="geometry" />
        </mxCell>
        <mxCell id="NeJj3FIsD3pPFGkIkVii-80" value="+exibirCatalogo();" style="text;strokeColor=none;fillColor=none;align=left;verticalAlign=top;spacingLeft=4;spacingRight=4;overflow=hidden;rotatable=0;points=[[0,0.5],[1,0.5]];portConstraint=eastwest;whiteSpace=wrap;html=1;" parent="NeJj3FIsD3pPFGkIkVii-77" vertex="1">
          <mxGeometry y="56" width="200" height="40" as="geometry" />
        </mxCell>
        <mxCell id="Zc8QyrdB5PibOtYCHmZc-1" value="&amp;lt;&amp;lt;interface&amp;gt;&amp;gt; Perfil" style="swimlane;fontStyle=1;align=center;verticalAlign=top;childLayout=stackLayout;horizontal=1;startSize=26;horizontalStack=0;resizeParent=1;resizeParentMax=0;resizeLast=0;collapsible=1;marginBottom=0;whiteSpace=wrap;html=1;" parent="1" vertex="1">
          <mxGeometry x="-200" y="130" width="190" height="110" as="geometry" />
        </mxCell>
        <mxCell id="Zc8QyrdB5PibOtYCHmZc-2" value="&lt;div&gt;&lt;br&gt;&lt;/div&gt;" style="text;strokeColor=none;fillColor=none;align=left;verticalAlign=top;spacingLeft=4;spacingRight=4;overflow=hidden;rotatable=0;points=[[0,0.5],[1,0.5]];portConstraint=eastwest;whiteSpace=wrap;html=1;" parent="Zc8QyrdB5PibOtYCHmZc-1" vertex="1">
          <mxGeometry y="26" width="190" height="14" as="geometry" />
        </mxCell>
        <mxCell id="Zc8QyrdB5PibOtYCHmZc-3" value="" style="line;strokeWidth=1;fillColor=none;align=left;verticalAlign=middle;spacingTop=-1;spacingLeft=3;spacingRight=3;rotatable=0;labelPosition=right;points=[];portConstraint=eastwest;strokeColor=inherit;" parent="Zc8QyrdB5PibOtYCHmZc-1" vertex="1">
          <mxGeometry y="40" width="190" height="10" as="geometry" />
        </mxCell>
        <mxCell id="Zc8QyrdB5PibOtYCHmZc-4" value="+login(login):void;&lt;div&gt;+cadastrar(cadastrarUsuario): void;&lt;/div&gt;" style="text;strokeColor=none;fillColor=none;align=left;verticalAlign=top;spacingLeft=4;spacingRight=4;overflow=hidden;rotatable=0;points=[[0,0.5],[1,0.5]];portConstraint=eastwest;whiteSpace=wrap;html=1;" parent="Zc8QyrdB5PibOtYCHmZc-1" vertex="1">
          <mxGeometry y="50" width="190" height="60" as="geometry" />
        </mxCell>
        <mxCell id="Zc8QyrdB5PibOtYCHmZc-6" value="PontoRetirada" style="swimlane;fontStyle=1;align=center;verticalAlign=top;childLayout=stackLayout;horizontal=1;startSize=26;horizontalStack=0;resizeParent=1;resizeParentMax=0;resizeLast=0;collapsible=1;marginBottom=0;whiteSpace=wrap;html=1;" parent="1" vertex="1">
          <mxGeometry x="1041" y="720" width="200" height="170" as="geometry" />
        </mxCell>
        <mxCell id="Zc8QyrdB5PibOtYCHmZc-7" value="&lt;div&gt;# idPontoRetirada: int&lt;/div&gt;# idUsuario: int&lt;div&gt;-nomeLocal: strg&lt;/div&gt;&lt;div&gt;-localizacao: geometry&lt;/div&gt;&lt;div&gt;-horarioFuncionamento: strg&lt;/div&gt;&lt;div&gt;&lt;br&gt;&lt;/div&gt;&lt;div&gt;&lt;div&gt;&lt;div&gt;&lt;br&gt;&lt;/div&gt;&lt;/div&gt;&lt;/div&gt;&lt;div&gt;&lt;div class=&quot;cm-line&quot;&gt;+ reservar(): boolean&lt;/div&gt;&lt;div class=&quot;cm-line&quot;&gt;+ liberar(): void&lt;/div&gt;&lt;/div&gt;" style="text;strokeColor=none;fillColor=none;align=left;verticalAlign=top;spacingLeft=4;spacingRight=4;overflow=hidden;rotatable=0;points=[[0,0.5],[1,0.5]];portConstraint=eastwest;whiteSpace=wrap;html=1;" parent="Zc8QyrdB5PibOtYCHmZc-6" vertex="1">
          <mxGeometry y="26" width="200" height="74" as="geometry" />
        </mxCell>
        <mxCell id="Zc8QyrdB5PibOtYCHmZc-8" value="" style="line;strokeWidth=1;fillColor=none;align=left;verticalAlign=middle;spacingTop=-1;spacingLeft=3;spacingRight=3;rotatable=0;labelPosition=right;points=[];portConstraint=eastwest;strokeColor=inherit;" parent="Zc8QyrdB5PibOtYCHmZc-6" vertex="1">
          <mxGeometry y="100" width="200" height="10" as="geometry" />
        </mxCell>
        <mxCell id="Zc8QyrdB5PibOtYCHmZc-9" value="&lt;div&gt;+exibirNoMapa(): void&lt;/div&gt;&lt;div&gt;&lt;div class=&quot;cm-line&quot;&gt;+ reservar(): boolean&lt;/div&gt;&lt;div class=&quot;cm-line&quot;&gt;+ liberar(): void&lt;/div&gt;&lt;/div&gt;" style="text;strokeColor=none;fillColor=none;align=left;verticalAlign=top;spacingLeft=4;spacingRight=4;overflow=hidden;rotatable=0;points=[[0,0.5],[1,0.5]];portConstraint=eastwest;whiteSpace=wrap;html=1;" parent="Zc8QyrdB5PibOtYCHmZc-6" vertex="1">
          <mxGeometry y="110" width="200" height="60" as="geometry" />
        </mxCell>
        <mxCell id="Zc8QyrdB5PibOtYCHmZc-10" value="Use" style="endArrow=open;endSize=12;dashed=1;html=1;rounded=0;exitX=1;exitY=0.5;exitDx=0;exitDy=0;entryX=0;entryY=0.5;entryDx=0;entryDy=0;" parent="1" source="NeJj3FIsD3pPFGkIkVii-9" target="NeJj3FIsD3pPFGkIkVii-76" edge="1">
          <mxGeometry width="160" relative="1" as="geometry">
            <mxPoint x="840" y="280" as="sourcePoint" />
            <mxPoint x="1000" y="280" as="targetPoint" />
          </mxGeometry>
        </mxCell>
        <mxCell id="Zc8QyrdB5PibOtYCHmZc-11" value="Use" style="endArrow=open;endSize=12;dashed=1;html=1;rounded=0;exitX=1;exitY=0.5;exitDx=0;exitDy=0;entryX=0;entryY=0.5;entryDx=0;entryDy=0;" parent="1" source="Zc8QyrdB5PibOtYCHmZc-5" target="NeJj3FIsD3pPFGkIkVii-76" edge="1">
          <mxGeometry width="160" relative="1" as="geometry">
            <mxPoint x="970" y="590" as="sourcePoint" />
            <mxPoint x="1201" y="738" as="targetPoint" />
          </mxGeometry>
        </mxCell>
        <mxCell id="Zc8QyrdB5PibOtYCHmZc-13" value="" style="endArrow=diamondThin;endFill=1;endSize=24;html=1;rounded=0;exitX=0.5;exitY=0;exitDx=0;exitDy=0;" parent="1" source="Zc8QyrdB5PibOtYCHmZc-6" target="NeJj3FIsD3pPFGkIkVii-76" edge="1">
          <mxGeometry width="160" relative="1" as="geometry">
            <mxPoint x="1130" y="682.62" as="sourcePoint" />
            <mxPoint x="1145.6" y="471.996" as="targetPoint" />
          </mxGeometry>
        </mxCell>
        <mxCell id="Zc8QyrdB5PibOtYCHmZc-14" value="1" style="text;html=1;align=center;verticalAlign=middle;resizable=0;points=[];autosize=1;strokeColor=none;fillColor=none;" parent="1" vertex="1">
          <mxGeometry x="1140" y="500" width="30" height="30" as="geometry" />
        </mxCell>
        <mxCell id="Zc8QyrdB5PibOtYCHmZc-15" value="0:N" style="text;html=1;align=center;verticalAlign=middle;resizable=0;points=[];autosize=1;strokeColor=none;fillColor=none;" parent="1" vertex="1">
          <mxGeometry x="1140" y="690" width="40" height="30" as="geometry" />
        </mxCell>
        <mxCell id="Zc8QyrdB5PibOtYCHmZc-16" value="" style="endArrow=open;endFill=1;endSize=12;html=1;rounded=0;" parent="1" edge="1">
          <mxGeometry width="160" relative="1" as="geometry">
            <mxPoint x="650" y="270" as="sourcePoint" />
            <mxPoint x="390" y="270" as="targetPoint" />
          </mxGeometry>
        </mxCell>
        <mxCell id="Zc8QyrdB5PibOtYCHmZc-17" value="" style="endArrow=open;endFill=1;endSize=12;html=1;rounded=0;exitX=0;exitY=0.4;exitDx=0;exitDy=0;exitPerimeter=0;" parent="1" source="NeJj3FIsD3pPFGkIkVii-87" edge="1">
          <mxGeometry width="160" relative="1" as="geometry">
            <mxPoint x="600" y="-30.53" as="sourcePoint" />
            <mxPoint x="390" y="250" as="targetPoint" />
          </mxGeometry>
        </mxCell>
        <mxCell id="Zc8QyrdB5PibOtYCHmZc-18" value="" style="endArrow=open;endFill=1;endSize=12;html=1;rounded=0;exitX=0;exitY=0.444;exitDx=0;exitDy=0;exitPerimeter=0;" parent="1" source="Zc8QyrdB5PibOtYCHmZc-5" edge="1">
          <mxGeometry width="160" relative="1" as="geometry">
            <mxPoint x="620" y="410" as="sourcePoint" />
            <mxPoint x="390" y="290" as="targetPoint" />
          </mxGeometry>
        </mxCell>
        <mxCell id="Zc8QyrdB5PibOtYCHmZc-19" value="EstoqueMudas" style="swimlane;fontStyle=1;align=center;verticalAlign=top;childLayout=stackLayout;horizontal=1;startSize=26;horizontalStack=0;resizeParent=1;resizeParentMax=0;resizeLast=0;collapsible=1;marginBottom=0;whiteSpace=wrap;html=1;" parent="1" vertex="1">
          <mxGeometry x="200" y="940" width="200" height="210" as="geometry" />
        </mxCell>
        <mxCell id="Zc8QyrdB5PibOtYCHmZc-20" value="&lt;div&gt;&lt;div&gt;&lt;div&gt;# idEspecie: int&lt;/div&gt;&lt;/div&gt;&lt;/div&gt;&lt;div&gt;# idPontoRetirada: int&lt;/div&gt;&lt;div&gt;- estoque: int&lt;/div&gt;&lt;div&gt;- atualizacao: datetime&lt;/div&gt;" style="text;strokeColor=none;fillColor=none;align=left;verticalAlign=top;spacingLeft=4;spacingRight=4;overflow=hidden;rotatable=0;points=[[0,0.5],[1,0.5]];portConstraint=eastwest;whiteSpace=wrap;html=1;" parent="Zc8QyrdB5PibOtYCHmZc-19" vertex="1">
          <mxGeometry y="26" width="200" height="114" as="geometry" />
        </mxCell>
        <mxCell id="Zc8QyrdB5PibOtYCHmZc-21" value="" style="line;strokeWidth=1;fillColor=none;align=left;verticalAlign=middle;spacingTop=-1;spacingLeft=3;spacingRight=3;rotatable=0;labelPosition=right;points=[];portConstraint=eastwest;strokeColor=inherit;" parent="Zc8QyrdB5PibOtYCHmZc-19" vertex="1">
          <mxGeometry y="140" width="200" height="30" as="geometry" />
        </mxCell>
        <mxCell id="Zc8QyrdB5PibOtYCHmZc-22" value="+verificarCompatiblidade();&lt;div&gt;+informacaoBotanica();&lt;/div&gt;" style="text;strokeColor=none;fillColor=none;align=left;verticalAlign=top;spacingLeft=4;spacingRight=4;overflow=hidden;rotatable=0;points=[[0,0.5],[1,0.5]];portConstraint=eastwest;whiteSpace=wrap;html=1;" parent="Zc8QyrdB5PibOtYCHmZc-19" vertex="1">
          <mxGeometry y="170" width="200" height="40" as="geometry" />
        </mxCell>
        <mxCell id="Zc8QyrdB5PibOtYCHmZc-24" value="" style="endArrow=open;endSize=12;dashed=1;html=1;rounded=0;exitX=0.493;exitY=1.094;exitDx=0;exitDy=0;entryX=0.532;entryY=1.069;entryDx=0;entryDy=0;exitPerimeter=0;entryPerimeter=0;" parent="1" source="NeJj3FIsD3pPFGkIkVii-80" target="Zc8QyrdB5PibOtYCHmZc-22" edge="1">
          <mxGeometry width="160" relative="1" as="geometry">
            <mxPoint x="-244.4000000000001" y="1341.3200000000002" as="sourcePoint" />
            <mxPoint x="260" y="1190" as="targetPoint" />
            <Array as="points">
              <mxPoint x="-301" y="1280" />
              <mxPoint x="306" y="1280" />
            </Array>
          </mxGeometry>
        </mxCell>
        <mxCell id="Zc8QyrdB5PibOtYCHmZc-29" value="" style="endArrow=open;endFill=1;endSize=12;html=1;rounded=0;exitX=0.5;exitY=0;exitDx=0;exitDy=0;entryX=1;entryY=0.5;entryDx=0;entryDy=0;" parent="1" source="Zc8QyrdB5PibOtYCHmZc-19" target="NeJj3FIsD3pPFGkIkVii-37" edge="1">
          <mxGeometry width="160" relative="1" as="geometry">
            <mxPoint x="160" y="880" as="sourcePoint" />
            <mxPoint x="320" y="880" as="targetPoint" />
            <Array as="points">
              <mxPoint x="300" y="906" />
            </Array>
          </mxGeometry>
        </mxCell>
        <mxCell id="Zc8QyrdB5PibOtYCHmZc-30" value="" style="endArrow=block;startArrow=block;endFill=1;startFill=1;html=1;rounded=0;exitX=1;exitY=0.5;exitDx=0;exitDy=0;entryX=0.56;entryY=1.012;entryDx=0;entryDy=0;entryPerimeter=0;" parent="1" source="Zc8QyrdB5PibOtYCHmZc-20" target="Zc8QyrdB5PibOtYCHmZc-9" edge="1">
          <mxGeometry width="160" relative="1" as="geometry">
            <mxPoint x="520" y="910" as="sourcePoint" />
            <mxPoint x="680" y="910" as="targetPoint" />
            <Array as="points">
              <mxPoint x="1153" y="1023" />
            </Array>
          </mxGeometry>
        </mxCell>
        <mxCell id="Zc8QyrdB5PibOtYCHmZc-31" value="N:M" style="text;html=1;align=center;verticalAlign=middle;resizable=0;points=[];autosize=1;strokeColor=none;fillColor=none;" parent="1" vertex="1">
          <mxGeometry x="430" y="980" width="50" height="30" as="geometry" />
        </mxCell>
        <mxCell id="Zc8QyrdB5PibOtYCHmZc-32" value="N:M" style="text;html=1;align=center;verticalAlign=middle;resizable=0;points=[];autosize=1;strokeColor=none;fillColor=none;" parent="1" vertex="1">
          <mxGeometry x="1150" y="920" width="50" height="30" as="geometry" />
        </mxCell>
        <mxCell id="Zc8QyrdB5PibOtYCHmZc-37" value="" style="endArrow=diamondThin;endFill=0;endSize=24;html=1;rounded=0;exitX=0.5;exitY=0;exitDx=0;exitDy=0;entryX=0.5;entryY=1;entryDx=0;entryDy=0;entryPerimeter=0;" parent="1" source="NeJj3FIsD3pPFGkIkVii-1" target="NeJj3FIsD3pPFGkIkVii-72" edge="1">
          <mxGeometry width="160" relative="1" as="geometry">
            <mxPoint x="234.99999999999977" y="59.99999999999977" as="sourcePoint" />
            <mxPoint x="315" y="-110" as="targetPoint" />
          </mxGeometry>
        </mxCell>
        <mxCell id="Zc8QyrdB5PibOtYCHmZc-38" value="1:N" style="text;html=1;align=center;verticalAlign=middle;resizable=0;points=[];autosize=1;strokeColor=none;fillColor=none;" parent="1" vertex="1">
          <mxGeometry x="260" y="45" width="40" height="30" as="geometry" />
        </mxCell>
        <mxCell id="Zc8QyrdB5PibOtYCHmZc-39" value="1" style="text;html=1;align=center;verticalAlign=middle;resizable=0;points=[];autosize=1;strokeColor=none;fillColor=none;" parent="1" vertex="1">
          <mxGeometry x="260" y="-130" width="30" height="30" as="geometry" />
        </mxCell>
        <mxCell id="Zc8QyrdB5PibOtYCHmZc-40" value="" style="endArrow=block;dashed=1;endFill=0;endSize=12;html=1;rounded=0;exitX=0;exitY=0.5;exitDx=0;exitDy=0;entryX=1;entryY=0.5;entryDx=0;entryDy=0;" parent="1" source="NeJj3FIsD3pPFGkIkVii-1" target="Zc8QyrdB5PibOtYCHmZc-4" edge="1">
          <mxGeometry width="160" relative="1" as="geometry">
            <mxPoint x="-120" y="310" as="sourcePoint" />
            <mxPoint x="40" y="310" as="targetPoint" />
          </mxGeometry>
        </mxCell>
        <mxCell id="edge3a09dc40e721" value="" style="endArrow=open;html=1;endSize=12;startArrow=diamondThin;startSize=14;startFill=1;edgeStyle=orthogonalEdgeStyle;align=left;verticalAlign=bottom;rounded=0;entryX=0.5;entryY=0;entryDx=0;entryDy=0;" parent="1" target="NeJj3FIsD3pPFGkIkVii-77" edge="1">
          <mxGeometry x="-0.0003" width="160" relative="1" as="geometry">
            <mxPoint x="-600" y="460" as="sourcePoint" />
            <mxPoint x="-340" y="1260" as="targetPoint" />
            <Array as="points">
              <mxPoint x="-600" y="510" />
              <mxPoint x="-430" y="510" />
              <mxPoint x="-430" y="990" />
              <mxPoint x="-300" y="990" />
            </Array>
            <mxPoint as="offset" />
          </mxGeometry>
        </mxCell>
        <mxCell id="edge8b4719915955" value="&lt;span style=&quot;color: rgba(0, 0, 0, 0); font-family: monospace; font-size: 0px; text-align: start; background-color: rgb(27, 29, 30);&quot;&gt;%3CmxGraphModel%3E%3Croot%3E%3CmxCell%20id%3D%220%22%2F%3E%3CmxCell%20id%3D%221%22%20parent%3D%220%22%2F%3E%3CmxCell%20id%3D%222%22%20value%3D%220%3AN%22%20style%3D%22text%3Bhtml%3D1%3Balign%3Dcenter%3BverticalAlign%3Dmiddle%3Bresizable%3D0%3Bpoints%3D%5B%5D%3Bautosize%3D1%3BstrokeColor%3Dnone%3BfillColor%3Dnone%3B%22%20vertex%3D%221%22%20parent%3D%221%22%3E%3CmxGeometry%20x%3D%22-590%22%20y%3D%22228%22%20width%3D%2240%22%20height%3D%2230%22%20as%3D%22geometry%22%2F%3E%3C%2FmxCell%3E%3C%2Froot%3E%3C%2FmxGraphModel%3E&lt;/span&gt;" style="endArrow=none;html=1;exitX=0.5;exitY=0;exitDx=0;exitDy=0;entryX=0.5;entryY=0;entryDx=0;entryDy=0;" parent="1" source="2nkvY8LqYgQEzE0bkV1d-7" target="NeJj3FIsD3pPFGkIkVii-69" edge="1">
          <mxGeometry width="160" relative="1" as="geometry">
            <mxPoint x="-600" y="-330" as="sourcePoint" />
            <mxPoint x="940" y="-230" as="targetPoint" />
            <Array as="points">
              <mxPoint x="-600" y="-400" />
              <mxPoint x="260" y="-400" />
            </Array>
          </mxGeometry>
        </mxCell>
        <mxCell id="2nkvY8LqYgQEzE0bkV1d-9" value="0:N" style="edgeLabel;html=1;align=center;verticalAlign=middle;resizable=0;points=[];" vertex="1" connectable="0" parent="edge8b4719915955">
          <mxGeometry x="-0.001" y="2" relative="1" as="geometry">
            <mxPoint x="251" as="offset" />
          </mxGeometry>
        </mxCell>
        <mxCell id="edge96380f9bf928" value="&lt;&lt;uses&gt;&gt;" style="endArrow=open;endSize=12;dashed=1;html=1;rounded=0;exitX=1;exitY=0.5;exitDx=0;exitDy=0;entryX=0.5;entryY=0;entryDx=0;entryDy=0;" parent="1" source="2nkvY8LqYgQEzE0bkV1d-7" target="Zc8QyrdB5PibOtYCHmZc-1" edge="1">
          <mxGeometry width="160" relative="1" as="geometry">
            <mxPoint x="-460" y="370" as="sourcePoint" />
            <mxPoint x="210" y="80" as="targetPoint" />
            <Array as="points">
              <mxPoint x="-400" y="370" />
              <mxPoint x="-400" y="40" />
              <mxPoint x="-105" y="40" />
            </Array>
          </mxGeometry>
        </mxCell>
        <mxCell id="2nkvY8LqYgQEzE0bkV1d-7" value="&lt;p style=&quot;margin:0px;margin-top:4px;text-align:center;&quot;&gt;&lt;b&gt;PaginaInicial&lt;/b&gt;&lt;/p&gt;&lt;hr size=&quot;1&quot; style=&quot;border-style:solid;&quot;&gt;&lt;p style=&quot;margin:0px;margin-left:4px;&quot;&gt;- perfil: Perfil&lt;br&gt;- catalogo: Catalogo&lt;br&gt;- publicacoes: List&lt;/p&gt;&lt;hr size=&quot;1&quot; style=&quot;border-style:solid;&quot;&gt;&lt;p style=&quot;margin:0px;margin-left:4px;&quot;&gt;+ render(): void&lt;br&gt;+ carregarComponentes(): void&lt;br&gt;+ mostrarPerfil(): void&lt;br&gt;+ mostrarCatalogo(): void&lt;br&gt;+ mostrarPublicacoes(): void&lt;/p&gt;" style="verticalAlign=top;align=left;overflow=fill;html=1;whiteSpace=wrap;" vertex="1" parent="1">
          <mxGeometry x="-680" y="280" width="160" height="180" as="geometry" />
        </mxCell>
      </root>
    </mxGraphModel>
  </diagram>
  <diagram id="w8Qgon6wu7_Iy_69vG96" name="PÃ¡gina-2">
    <mxGraphModel dx="1163" dy="563" grid="1" gridSize="10" guides="1" tooltips="1" connect="1" arrows="1" fold="1" page="1" pageScale="1" pageWidth="827" pageHeight="1169" math="0" shadow="0">
      <root>
        <mxCell id="0" />
        <mxCell id="1" parent="0" />
      </root>
    </mxGraphModel>
  </diagram>
</mxfile>
